<svg id="Group_929" data-name="Group 929" xmlns="http://www.w3.org/2000/svg" viewBox="809 3191 302 302">
  <defs>
    <style>
      .cls-1 {
        fill: #fff;
      }

      .cls-2 {
        fill: #24bde0;
      }

      .cls-3 {
        fill: #434343;
      }

      .cls-4 {
        fill: #e81d7d;
      }
    </style>
  </defs>
  <circle id="Ellipse_51" data-name="Ellipse 51" class="cls-1" cx="151" cy="151" r="151" transform="translate(809 3191)"/>
  <g id="Group_680" data-name="Group 680" transform="translate(871 3241.658)">
    <g id="Group_677" data-name="Group 677" transform="translate(79.161 50.096)">
      <path id="Path_1330" data-name="Path 1330" class="cls-2" d="M259.239,102.9l-47.078,27.166a45.874,45.874,0,0,1-39.727,68.791V210.98a6.5,6.5,0,0,1-3.895,5.988,9.8,9.8,0,0,0,0,18.013,6.5,6.5,0,0,1,3.895,5.988v12.22A16.356,16.356,0,0,0,180.613,251l72.637-41.917a16.356,16.356,0,0,0,8.179-14.167V111.079A16.593,16.593,0,0,0,259.239,102.9Z" transform="translate(-162.6 -102.9)"/>
    </g>
    <path id="Path_1331" data-name="Path 1331" class="cls-3" d="M140.6,211.7a21.053,21.053,0,0,0,41.09,0Z" transform="translate(-72.149 -108.635)"/>
    <circle id="Ellipse_32" data-name="Ellipse 32" class="cls-3" cx="2.872" cy="2.872" r="2.872" transform="translate(121.176 97.369)"/>
    <circle id="Ellipse_33" data-name="Ellipse 33" class="cls-3" cx="2.872" cy="2.872" r="2.872" transform="translate(48.003 97.369)"/>
    <g id="Group_678" data-name="Group 678" transform="translate(2.191)">
      <path id="Path_1332" data-name="Path 1332" class="cls-4" d="M172.121,44.108,99.484,2.191a16.363,16.363,0,0,0-16.358,0L10.488,44.108A16.426,16.426,0,0,0,4.5,50.1L51.578,77.262a45.878,45.878,0,0,1,79.453,0L141.5,71.226a6.584,6.584,0,0,1,7.205.438,9.641,9.641,0,0,0,5.7,1.9,9.852,9.852,0,0,0,9.883-9.347c0-.487,0-1.022-.049-1.509a6.526,6.526,0,0,1,3.213-6.426l10.711-6.134A16.69,16.69,0,0,0,172.121,44.108Z" transform="translate(-4.5)"/>
    </g>
    <g id="Group_679" data-name="Group 679" transform="translate(0 50.096)">
      <path id="Path_1333" data-name="Path 1333" class="cls-3" d="M85.1,216.968A6.5,6.5,0,0,0,89,210.98V198.857a45.874,45.874,0,0,1-39.727-68.791l-10.613-6.134a6.622,6.622,0,0,1-3.213-6.378,7.816,7.816,0,0,0,0-1.509,9.921,9.921,0,0,0-9.542-9.3,9.73,9.73,0,0,0-5.988,1.85,6.509,6.509,0,0,1-7.108.389L2.191,102.9A16.637,16.637,0,0,0,0,111.128v83.835A16.3,16.3,0,0,0,8.179,209.13L80.816,251.1A16.356,16.356,0,0,0,89,253.287v-12.22a6.566,6.566,0,0,0-3.943-6.037,9.79,9.79,0,0,1-5.94-9.007A9.981,9.981,0,0,1,85.1,216.968Z" transform="translate(0 -102.9)"/>
    </g>
  </g>
</svg>
