<svg xmlns="http://www.w3.org/2000/svg" viewBox="624 213 587.093 234.837">
  <defs>
    <style>
      .cls-1 {
        fill: #fff;
      }

      .cls-2 {
        fill: none;
      }
    </style>
  </defs>
  <g id="Group_695" data-name="Group 695" transform="translate(624 213)">
    <path id="Path_1334" data-name="Path 1334" class="cls-1" d="M262.454,320.1a23.454,23.454,0,1,0,23.454,23.454A23.465,23.465,0,0,0,262.454,320.1Zm0,35.2A11.742,11.742,0,1,1,274.2,343.554,11.739,11.739,0,0,1,262.454,355.3Z" transform="translate(-168.842 -226.136)"/>
    <path id="Path_1335" data-name="Path 1335" class="cls-1" d="M769.7,334.125h20.9v2.231c0,10.362-1.585,17.848-4.785,22.368-3.493,4.99-8.63,7.456-15.411,7.456q-10.039,0-15.734-7.28-5.68-7.353-5.665-20.2,0-12.989,5.724-20.519c3.787-5.02,9.012-7.485,15.617-7.485,8.777,0,15.118,4.55,19.081,13.65l-14.531,5.313a8.152,8.152,0,0,0-1.5-4.139A3.556,3.556,0,0,0,770.458,324q-6.165,0-6.164,15.969c0,4.521.44,7.808,1.38,9.863a4.5,4.5,0,0,0,4.344,3.053,4.549,4.549,0,0,0,2.172-.5,5.388,5.388,0,0,0,1.644-1.409,7.857,7.857,0,0,0,1.057-2.231,10.025,10.025,0,0,0,.382-2.935h-5.548Z" transform="translate(-529.134 -219.495)"/>
    <path id="Path_1336" data-name="Path 1336" class="cls-1" d="M933.839,347.623l-.969-6.458a3.61,3.61,0,0,1-.117-.969c-.059-.528-.294-2.613-.763-6.253-.059-.382-.117-.969-.176-1.673-.088-.7-.147-1.614-.294-2.7l-.47-5.254q-.088.749-.176,1.673c-.088.646-.176,1.321-.264,2.055-.147,1.468-.294,2.5-.382,3.082a8.733,8.733,0,0,0-.117,1.057l-1.057,6.722-1.5,8.689Zm18.347,18.728h-15.47l-1.115-7.045H925.5l-1.2,7.045H908.8L922.127,310.9h18.317Z" transform="translate(-642.025 -219.636)"/>
    <path id="Path_1337" data-name="Path 1337" class="cls-1" d="M1136.775,366.28h-15.147l-.616-25.3-.47-10.1q-.264,2.906-.616,5.548c-.235,1.761-.5,3.493-.822,5.108l-4.9,24.717h-12.446l-4.022-24.746q-.352-2.158-.969-7.4c-.059-.528-.147-1.615-.323-3.229l-.382,10.215-1.321,25.157H1078.8l6.458-55.451h18.64l3.141,18.7c.264,1.526.5,3.2.7,4.99s.382,3.728.558,5.842c.323-3.523.734-6.663,1.262-9.423l3.728-20.079H1131.4Z" transform="translate(-762.122 -219.566)"/>
    <path id="Path_1338" data-name="Path 1338" class="cls-1" d="M1312.8,366.351V310.9h27.828v13.3h-12.857v7.1h11.536v13.3h-11.536v8.513h12.857v13.3Z" transform="translate(-927.432 -219.636)"/>
    <path id="Path_1339" data-name="Path 1339" class="cls-1" d="M1568.8,338.934q0-14.751-5.313-14.765c-1.761,0-3.2,1.292-4.256,3.875-1.028,2.407-1.556,5.93-1.556,10.568,0,4.579.47,8.131,1.438,10.656s2.319,3.787,4.021,3.787c1.761,0,3.141-1.233,4.08-3.728C1568.3,346.859,1568.8,343.366,1568.8,338.934Zm15.558-.117c0,8.161-1.937,14.824-5.783,19.9a17.92,17.92,0,0,1-14.971,7.632,19.177,19.177,0,0,1-14.061-5.842c-4.9-4.961-7.339-12.358-7.339-22.28q0-14.222,7.691-21.752a18.672,18.672,0,0,1,13.532-5.577,18.093,18.093,0,0,1,15.264,7.574C1582.445,323.493,1584.353,330.274,1584.353,338.816Z" transform="translate(-1089.493 -219.636)"/>
    <path id="Path_1340" data-name="Path 1340" class="cls-1" d="M1719.8,366.351V310.9h14.3l7.515,19.491c.382,1.174.881,2.466,1.38,3.963.528,1.468,1.086,3.2,1.7,5.137l1.556,4.873c-.558-4.814-.969-8.924-1.262-12.358s-.411-6.311-.411-8.63V310.9h14.442v55.451h-14.442l-7.985-20.4c-.851-2.2-1.585-4.227-2.26-6.106-.675-1.908-1.262-3.728-1.761-5.431.616,3.9,1.027,7.309,1.321,10.186.264,2.906.411,5.431.411,7.6v14.149Z" transform="translate(-1214.959 -219.636)"/>
    <path id="Path_1341" data-name="Path 1341" class="cls-1" d="M1910.9,335.032h-14.442V300.1H1910.9Zm1.086,15.352a7.92,7.92,0,0,1-2.5,5.871,8.231,8.231,0,0,1-5.93,2.436,8.32,8.32,0,0,1-8.366-8.425,8.175,8.175,0,0,1,2.436-5.959,8.049,8.049,0,0,1,5.93-2.466,8.287,8.287,0,0,1,6.018,2.466A8.49,8.49,0,0,1,1911.991,350.384Z" transform="translate(-1338.871 -212.007)"/>
    <rect id="Rectangle_348" data-name="Rectangle 348" class="cls-2" width="587.093" height="234.837"/>
    <path id="Path_1342" data-name="Path 1342" class="cls-1" d="M206.273,129.023,141.282,91.537a14.455,14.455,0,0,0-7.339-1.937,14.835,14.835,0,0,0-7.339,1.937L61.643,129.023A14.649,14.649,0,0,0,56.3,134.4h.029l9.452,5.46a5.95,5.95,0,0,0,6.4-.352,8.623,8.623,0,0,1,5.343-1.644,8.855,8.855,0,0,1,8.542,8.307,6.922,6.922,0,0,1-.029,1.35,5.9,5.9,0,0,0,2.789,5.665l9.6,5.548a41.068,41.068,0,0,1,71.1-.029l9.305-5.372a5.887,5.887,0,0,1,6.429.382,8.65,8.65,0,0,0,5.108,1.673,8.813,8.813,0,0,0,8.836-8.366,10.827,10.827,0,0,0-.029-1.38,5.919,5.919,0,0,1,2.877-5.754l9.57-5.489A14.875,14.875,0,0,0,206.273,129.023Z" transform="translate(-39.773 -63.298)"/>
    <path id="Path_1343" data-name="Path 1343" class="cls-1" d="M383.291,253.4l-10.039,5.812a5.9,5.9,0,0,0-2.378,5.431,10.825,10.825,0,0,1,.029,1.38,8.813,8.813,0,0,1-8.836,8.366,8.65,8.65,0,0,1-5.108-1.673,5.887,5.887,0,0,0-6.253-.47l-9.482,5.489a41.05,41.05,0,0,1-35.548,61.557v10.8a5.9,5.9,0,0,1-3.493,5.372,8.808,8.808,0,0,0,0,16.145,5.787,5.787,0,0,1,3.493,5.372v10.979a14.917,14.917,0,0,0,7.339-1.937l64.932-37.574a14.731,14.731,0,0,0,7.339-12.711v-75A15.1,15.1,0,0,0,383.291,253.4Z" transform="translate(-209.746 -179.015)"/>
    <path id="Path_1344" data-name="Path 1344" class="cls-1" d="M121.487,371.982a8.808,8.808,0,0,1,0-16.145,5.787,5.787,0,0,0,3.493-5.372V339.692a41.05,41.05,0,0,1-35.519-61.557l-9.511-5.489a5.926,5.926,0,0,1-2.877-5.724,6.924,6.924,0,0,0,.029-1.35,8.855,8.855,0,0,0-8.542-8.307,8.623,8.623,0,0,0-5.343,1.644,5.95,5.95,0,0,1-6.4.352l-9.452-5.46a14.763,14.763,0,0,0-1.967,7.339v75a14.731,14.731,0,0,0,7.339,12.711L117.7,386.366a14.455,14.455,0,0,0,7.339,1.937V377.324A5.909,5.909,0,0,0,121.487,371.982Z" transform="translate(-32.073 -179.298)"/>
  </g>
</svg>
