<?xml version="1.0" encoding="utf-8"?>
<!-- Generator: Adobe Illustrator 19.1.0, SVG Export Plug-In . SVG Version: 6.00 Build 0)  -->
<svg version="1.1" id="Layer_1" xmlns="http://www.w3.org/2000/svg" xmlns:xlink="http://www.w3.org/1999/xlink" x="0px" y="0px"
	 viewBox="0 0 1800 1800" style="enable-background:new 0 0 1800 1800;" xml:space="preserve">
<style type="text/css">
	.st0{fill:#444444;}
	.st1{fill:#EA217D;}
	.st2{opacity:0.5;fill:#161616;}
	.st3{fill:none;stroke:#EA217D;stroke-width:20.313;stroke-linecap:round;stroke-linejoin:round;}
	
		.st4{fill:none;stroke:#EA217D;stroke-width:20.313;stroke-linecap:round;stroke-linejoin:round;stroke-dasharray:92.9757,92.9757,92.9757,92.9757;}
	
		.st5{fill:none;stroke:#EA217D;stroke-width:20.313;stroke-linecap:round;stroke-linejoin:round;stroke-dasharray:92.9757,92.9757,92.9757,92.9757,92.9757,92.9757;}
	.st6{fill:none;stroke:#EA217D;stroke-width:20.3131;stroke-linecap:round;stroke-linejoin:round;stroke-miterlimit:10;}
	.st7{fill:none;stroke:#24BDE0;stroke-width:20.313;stroke-linecap:round;stroke-linejoin:round;}
	
		.st8{fill:none;stroke:#24BDE0;stroke-width:20.313;stroke-linecap:round;stroke-linejoin:round;stroke-dasharray:91.5952,91.5952,91.5952,91.5952;}
	
		.st9{fill:none;stroke:#24BDE0;stroke-width:20.313;stroke-linecap:round;stroke-linejoin:round;stroke-dasharray:91.5952,91.5952,91.5952,91.5952,91.5952,91.5952;}
	.st10{fill:none;stroke:#24BDE0;stroke-width:20.3131;stroke-linecap:round;stroke-linejoin:round;stroke-miterlimit:10;}
	.st11{fill:none;stroke:#FFFFFF;stroke-width:62.8647;stroke-linecap:round;stroke-linejoin:round;stroke-miterlimit:10;}
	.st12{fill:#0768AA;}
	.st13{fill:none;stroke:#EA217D;stroke-width:25;stroke-linecap:round;stroke-linejoin:round;stroke-miterlimit:10;}
	.st14{fill:#24BDE0;}
	.st15{opacity:0.15;fill:#161616;}
	.st16{fill:#FFFFFF;}
	.st17{fill:none;stroke:#0768AA;stroke-width:25;stroke-linecap:round;stroke-linejoin:round;stroke-miterlimit:10;}
	.st18{fill:#EFD61D;}
	.st19{opacity:0.5;fill:url(#SVGID_1_);}
</style>
<g>
	<circle class="st0" cx="900" cy="900" r="800"/>
	<circle class="st1" cx="900" cy="900" r="706.8"/>
	<path class="st2" d="M900,1700c220.9,0,420.9-89.5,565.7-234.3L334.3,334.3C189.5,479.1,100,679.1,100,900
		C100,1341.8,458.2,1700,900,1700z"/>
	<circle class="st1" cx="478.7" cy="478.7" r="110.8"/>
	<g>
		<g>
			<g>
				<path class="st3" d="M366.7,1433.3c-11.9-11.9-23.3-24-34.2-36.5"/>
				<path class="st4" d="M275.7,1323.3c-62.4-91.8-102.3-194.4-119.7-299.9"/>
				<path class="st5" d="M149.8,977.4c-17.2-168.1,21.9-340.9,117.3-487.7"/>
				<path class="st3" d="M293.6,451.5c9.9-13.3,20.2-26.4,31.1-39.1"/>
			</g>
		</g>
		<path class="st6" d="M1433.3,1433.3c-294.5,294.5-772,294.5-1066.6,0"/>
		<g>
			<g>
				<path class="st7" d="M1433.3,366.7c11.9,11.9,23.3,24,34.2,36.5"/>
				<path class="st8" d="M1523.6,475.5c61.6,90.3,101.5,191.1,119.5,294.9"/>
				<path class="st9" d="M1649.5,815.8c18.5,165.6-17.8,336.2-108.8,482.4"/>
				<path class="st7" d="M1515.3,1336.2c-9.6,13.5-19.7,26.8-30.3,39.8"/>
			</g>
		</g>
		<path class="st10" d="M366.7,366.7c294.5-294.5,772-294.5,1066.6,0"/>
	</g>
	<path class="st11" d="M297.9,867.7c0-315.1,255.5-570.6,570.6-570.6"/>
	<circle class="st12" cx="900" cy="900" r="485.2"/>
	<path class="st13" d="M1289.6,1289.6c-215.2,215.2-564.1,215.2-779.2,0"/>
	<path class="st13" d="M1346.2,1346.2c-246.4,246.4-645.9,246.4-892.3,0"/>
	<circle class="st14" cx="900" cy="900" r="385.1"/>
	<path class="st15" d="M900,1385.2c134,0,255.3-54.3,343.1-142.1L556.9,556.9C469.1,644.7,414.8,766,414.8,900
		C414.8,1168,632,1385.2,900,1385.2z"/>
	<circle class="st16" cx="900" cy="900" r="101.6"/>
	<path class="st17" d="M900,975c-41.4,0-75-33.6-75-75"/>
	<g>
		<path class="st0" d="M838.9,477.6V256.7c0-10.2,8.3-18.5,18.5-18.5h68.2c4.4,0,8.7,1.6,12,4.4l17,14.5c4.1,3.5,6.5,8.7,6.5,14.1
			v191.9c0,5.4-2.4,10.6-6.5,14.1l-17,14.5c-3.3,2.9-7.6,4.4-12,4.4h-68.2C847.2,496.1,838.9,487.8,838.9,477.6z"/>
		<path class="st16" d="M936.3,448L936.3,448c-4.3,0-7.9-3.5-7.9-7.9V300.3c0-4.3,3.5-7.9,7.9-7.9l0,0c4.3,0,7.9,3.5,7.9,7.9v139.8
			C944.1,444.5,940.6,448,936.3,448z"/>
	</g>
	<g>
		<polygon class="st0" points="260.5,936 223,871.5 260.5,807 335.5,807 373,871.5 335.5,936 		"/>
		<polygon class="st2" points="233.6,889.6 260.5,936 278.2,936 321.7,892.7 276,847.1 		"/>
		<circle class="st14" cx="297.7" cy="871.2" r="32.3"/>
	</g>
	<g>
		<g>
			<path class="st18" d="M783.8,514.7c8.5,0,16.4,3.3,22.4,9.2c12.3,12.3,12.3,32.4,0,44.8l-98.7,98.7c-5.9,5.9-13.9,9.2-22.4,9.2
				c-8.5,0-16.4-3.3-22.4-9.2c-12.3-12.3-12.3-32.4,0-44.8l98.7-98.7C767.4,518,775.3,514.7,783.8,514.7 M783.8,499.7
				c-12,0-23.9,4.5-33,13.6l-98.7,98.7c-18.1,18.1-18.1,47.8,0,66l0,0c9.1,9.1,21,13.6,33,13.6c12,0,23.9-4.5,33-13.6l98.7-98.7
				c18.1-18.1,18.1-47.8,0-66l0,0C807.7,504.3,795.8,499.7,783.8,499.7L783.8,499.7z"/>
		</g>
		<g>
			<path class="st18" d="M746.4,401c17.5,0,31.6,14.2,31.6,31.6c0,17.5-14.2,31.6-31.6,31.6H606.8c-17.5,0-31.6-14.2-31.6-31.6
				s14.2-31.6,31.6-31.6H746.4 M746.4,386H606.8c-25.7,0-46.6,21-46.6,46.6v0c0,25.7,21,46.6,46.6,46.6h139.6
				c25.7,0,46.6-21,46.6-46.6v0C793.1,407,772.1,386,746.4,386L746.4,386z"/>
		</g>
		<g>
			<path class="st18" d="M897.5,552.1c17.5,0,31.6,14.2,31.6,31.6v139.6c0,17.5-14.2,31.6-31.6,31.6c-17.5,0-31.6-14.2-31.6-31.6
				V583.7C865.8,566.3,880,552.1,897.5,552.1 M897.5,537.1L897.5,537.1c-25.7,0-46.6,21-46.6,46.6v139.6c0,25.7,21,46.6,46.6,46.6h0
				c25.7,0,46.6-21,46.6-46.6V583.7C944.1,558.1,923.1,537.1,897.5,537.1L897.5,537.1z"/>
		</g>
	</g>
	<path class="st11" d="M1019.1,533.7c154.4,50.2,266,195.2,266,366.3"/>
	<line class="st13" x1="760" y1="927.5" x2="547" y2="927.5"/>
	<line class="st13" x1="804" y1="1004.5" x2="570" y2="1004.5"/>
	<line class="st13" x1="898" y1="1081.5" x2="614" y2="1081.5"/>
	<line class="st13" x1="898" y1="1158.5" x2="680" y2="1158.5"/>
	<line class="st13" x1="898" y1="1235.5" x2="779" y2="1235.5"/>
	<path class="st2" d="M802.6,929c9.7,32.7,35.5,58.5,68.1,68.3l63.4-63.1l-68.4-68.4L802.6,929z"/>
	<circle class="st1" cx="900" cy="900" r="48.4"/>
	<circle class="st16" cx="914" cy="886" r="15"/>
	<linearGradient id="SVGID_1_" gradientUnits="userSpaceOnUse" x1="695.7299" y1="1104.3333" x2="910.532" y2="889.5311">
		<stop  offset="0" style="stop-color:#000000;stop-opacity:0"/>
		<stop  offset="1" style="stop-color:#000000"/>
	</linearGradient>
	<path class="st19" d="M900,1001.6c-56.1,0-101.6-45.5-101.6-101.6c0-26.9,10.5-51.4,27.6-69.6l-256.4,256.4l143.6,143.6
		l257.8-257.9C952.8,990.5,927.7,1001.6,900,1001.6z"/>
	<circle class="st1" cx="1321.7" cy="1321.7" r="110.2"/>
</g>
</svg>
