<svg xmlns="http://www.w3.org/2000/svg" viewBox="133.075 2645.118 502.494 422.923">
  <defs>
    <style>
      .cls-1 {
        fill: #c1196b;
      }
    </style>
  </defs>
  <g id="Group_854" data-name="Group 854" transform="translate(-153.224 2.471)">
    <path id="Path_1479" data-name="Path 1479" class="cls-1" d="M42.743,220.9a10.17,10.17,0,0,1,3.3,1.793l13.115-3.963-8.209-11.04a9.891,9.891,0,0,1-3.68-.472,10.473,10.473,0,0,1,6.511-19.909,11.75,11.75,0,0,1,3.4,1.887l12.549-3.586-8.02-10.19a10.643,10.643,0,0,1-3.869-.472,10.473,10.473,0,1,1,13.21-6.794L81.9,182.214l17.078-4.906a9.941,9.941,0,0,1,2.548-4.057c9.624-31.609,19.72-48.782,19.72-48.782S110.773,96.54,78.881,108.995c37.742-17.928,10.285-46.517,10.285-46.517S121.624,87.2,152.95,100.691a38.2,38.2,0,0,1,4.718-.377,13.938,13.938,0,0,1,1.981.094q.566-2.548,1.415-5.661c4.34-16.512,19.343-34.062,42.649-37.742C195.976,39.643,177.388,21.244,138.7,8.6,55.2-18.857,31.7,23.414,13.4,79.084c-8.869,27.174,2.17,56.991,2.925,78.409L0,232.883a238.3,238.3,0,0,0,56.33,27.269,16.254,16.254,0,0,1,1.981.66c-2.359-3.586-4.623-7.36-6.794-11.134l-3.68-6.322,9.624-11.889-8.02,2.453v.094a10.474,10.474,0,1,1-6.7-13.115Zm0,0" transform="translate(286.299 3009.394) rotate(-81)"/>
    <path id="Path_1478" data-name="Path 1478" class="cls-1" d="M317.313,56.5C220.537-40.272,164.971,9.445,156.064,43.21c-4.254,16.085-3.855,22.865-3.855,22.865C137.72,58.9,100.5,48.793,68.594,165.908L0,250.321A337.244,337.244,0,0,0,53.439,320.51a337.243,337.243,0,0,0,70.189,53.439l84.413-68.594c27.384-12.762,71.917-17.813,100.365-46.261,58.358-58.491,96.51-114.988,8.907-202.591ZM180.524,264.279a14.844,14.844,0,0,1-20.871,0,13.484,13.484,0,0,1-3.058-4.653L138.65,256.17l3.456,17.946a14.724,14.724,0,1,1-16.218,23.928,16.307,16.307,0,0,1-3.058-4.387l-19.009-3.323,3.323,19.01a13.79,13.79,0,0,1,4.387,3.057,14.758,14.758,0,1,1-20.871,0l.133-.133-4.387-24.992L61.415,282.89l-.133.133a14.758,14.758,0,1,1,0-20.871,16.306,16.306,0,0,1,3.057,4.387l19.01,3.323-3.323-19.009A13.79,13.79,0,0,1,75.64,247.8,14.758,14.758,0,0,1,96.51,226.925a13.488,13.488,0,0,1,3.058,4.653l17.946,3.456-3.456-17.946a14.724,14.724,0,1,1,16.218-23.928,14.683,14.683,0,0,1,0,20.738l4.786,24.593,24.593,4.786a14.805,14.805,0,0,1,20.871,21Zm0,0" transform="translate(361.728 3007.072) rotate(-81)"/>
  </g>
</svg>
