<svg xmlns="http://www.w3.org/2000/svg" viewBox="1414.528 1849 415.594 416">
  <defs>
    <style>
      .cls-1 {
        fill: #e81d7d;
      }

      .cls-2 {
        fill: #fff;
      }
    </style>
  </defs>
  <g id="Group_572" data-name="Group 572" transform="translate(492.691 1074)">
    <g id="Group_570" data-name="Group 570" transform="translate(921.837 775)">
      <path id="Path_1253" data-name="Path 1253" class="cls-1" d="M1206.271,1586.846s-6.75-9.846-16.078-26.21c-39.859-69.922-125.841-258.975,106.949-261.6,53.844-.606,88.615,9.218,110.031,25.99a69.579,69.579,0,0,1,14.486,15.408c54.222,79.195-90.617,246.406-90.617,246.406Z" transform="translate(-1084.044 -1282.881)"/>
      <g id="Group_569" data-name="Group 569" transform="translate(0 0)">
        <path id="Path_1245" data-name="Path 1245" class="cls-2" d="M226.8,268.7a6.907,6.907,0,0,0,6.9-6.9v-97h20.8a34.6,34.6,0,1,0-34.6-34.6V151H192.2V130.2a34.6,34.6,0,1,0-34.6,34.6h20.8v97a6.9,6.9,0,1,0,13.8,0v-97h27.7v97a6.843,6.843,0,0,0,6.9,6.9Zm6.9-138.5A20.8,20.8,0,1,1,254.5,151H233.7ZM178.3,151H157.5a20.8,20.8,0,1,1,20.8-20.8Zm0,0" transform="translate(1.8 1.399)"/>
        <path id="Path_1246" data-name="Path 1246" class="cls-2" d="M48.735,14.675,75.217,36.9a6.739,6.739,0,0,0,4.464,1.623,6.832,6.832,0,0,0,5.276-2.435,6.909,6.909,0,0,0-.812-9.74L57.664,4.123a7,7,0,0,0-9.74.812,7,7,0,0,0,.812,9.74Zm0,0" transform="translate(0.678 0.037)"/>
        <path id="Path_1247" data-name="Path 1247" class="cls-2" d="M53.8,74.277,21.233,62.406a6.809,6.809,0,0,0-8.827,4.16,6.957,6.957,0,0,0,4.16,8.929l32.57,11.871a6.658,6.658,0,0,0,2.334.406,6.856,6.856,0,0,0,6.494-4.566,7.088,7.088,0,0,0-4.16-8.929Zm0,0" transform="translate(0.175 0.907)"/>
        <path id="Path_1248" data-name="Path 1248" class="cls-2" d="M330.4,38.622A6.93,6.93,0,0,0,334.865,37l26.482-22.22a6.819,6.819,0,0,0,.812-9.74,6.714,6.714,0,0,0-9.639-1.015L325.936,26.345a6.819,6.819,0,0,0-.812,9.74,6.936,6.936,0,0,0,5.276,2.537Zm0,0" transform="translate(4.733 0.036)"/>
        <path id="Path_1249" data-name="Path 1249" class="cls-2" d="M41.5,129.7H6.9a6.9,6.9,0,0,0,0,13.8H41.5a6.9,6.9,0,0,0,0-13.8Zm0,0" transform="translate(0 1.898)"/>
        <path id="Path_1250" data-name="Path 1250" class="cls-2" d="M397.863,66.566a6.93,6.93,0,0,0-8.827-4.16l-32.57,11.871a7,7,0,0,0-4.16,8.929,6.856,6.856,0,0,0,6.493,4.566,5.951,5.951,0,0,0,2.334-.406L393.7,75.495a7,7,0,0,0,4.16-8.929Zm0,0" transform="translate(5.149 0.907)"/>
        <path id="Path_1251" data-name="Path 1251" class="cls-2" d="M206.8,0C130.4,0,68.3,62.2,68.3,138.5c0,58.443,22.931,102.072,72.14,137.28a3.559,3.559,0,0,0,.812.507c.406.2,7.813,4.363,9.639,16.031A20.758,20.758,0,0,0,137.5,311.7a21.275,21.275,0,0,0,5.276,13.9,20.949,20.949,0,0,0,0,27.8A20.841,20.841,0,0,0,158.3,388.1a6.9,6.9,0,1,0,0-13.8,6.9,6.9,0,1,1,0-13.8h69.3a6.9,6.9,0,1,0,0-13.8H158.3a6.9,6.9,0,1,1,0-13.8h69.3a6.9,6.9,0,1,0,0-13.8H158.3a6.9,6.9,0,1,1,0-13.8h69.3a6.9,6.9,0,1,0,0-13.8H164.792c-2.435-17.452-13.8-24.96-16.539-26.583C102.595,232.148,82.2,193.389,82.2,139.208a124.7,124.7,0,1,1,249.4,0c0,54.181-20.394,93.042-66.053,125.713-3.145,1.826-17.046,11.161-17.046,33.584a6.842,6.842,0,0,0,6.9,6.9,6.9,6.9,0,0,1,0,13.8,6.9,6.9,0,1,0,0,13.8,6.9,6.9,0,1,1,0,13.8,6.9,6.9,0,1,0,0,13.8,6.907,6.907,0,0,1,6.9,6.9,6.72,6.72,0,0,1-6.9,6.9H186.1a6.907,6.907,0,0,0-6.9,6.9v13.9A20.828,20.828,0,0,0,200,416h13.9a20.828,20.828,0,0,0,20.8-20.8v-6.9h20.8a20.573,20.573,0,0,0,20.8-20.8,21.275,21.275,0,0,0-5.276-13.9,20.875,20.875,0,0,0,5.276-13.9,21.275,21.275,0,0,0-5.276-13.9,20.8,20.8,0,0,0-8.117-33.28c1.826-11.668,9.335-15.828,9.639-16.031s.609-.3.913-.507c49.21-35.208,72.14-78.736,72.14-137.28C345.295,62.2,283.2,0,206.8,0Zm13.9,394.794a6.907,6.907,0,0,1-6.9,6.9H199.9a6.906,6.906,0,0,1-6.9-6.9v-6.9h27.7Zm0,0" transform="translate(0.999)"/>
        <path id="Path_1252" data-name="Path 1252" class="cls-2" d="M403.4,129.7H368.8a6.9,6.9,0,1,0,0,13.8h34.6a6.9,6.9,0,0,0,0-13.8Zm0,0" transform="translate(5.296 1.898)"/>
      </g>
    </g>
  </g>
</svg>
