<svg xmlns="http://www.w3.org/2000/svg" viewBox="66.728 1013.442 480.988 529.283">
  <defs>
    <style>
      .cls-1 {
        fill: #f46cba;
      }

      .cls-2 {
        fill: #e81d7d;
      }

      .cls-3 {
        fill: #5cd6ea;
      }
    </style>
  </defs>
  <g id="Group_571" data-name="Group 571" transform="translate(-486.272 248.443)">
    <g id="Group_461" data-name="Group 461" transform="translate(685.218 929.048)">
      <path id="Path_1144" data-name="Path 1144" class="cls-1" d="M16.9,36.36S127.326-8.2,212.044,10.651s111.9,150.582,90.349,265.415S257.341,324.3,257.341,324.3l-34.524,28.158L196.863,288.8,150.1,297.613,23.756,277.291S204.7,325.77,219.144,165.15,45.547,33.667,16.9,36.36Z" transform="translate(24.484 8.676)"/>
      <g id="Group_460" data-name="Group 460" transform="translate(0 0)">
        <path id="Path_1145" data-name="Path 1145" class="cls-2" d="M292.841,42.839C252.686,2.194,187.311-4.906,133.935,2.684c-27.668,3.673-91.573,24-93.777,59.253-3.673,8.08-1.469,17.139,6.856,22.281a4.183,4.183,0,0,0,3.428,0,43.984,43.984,0,0,0,8.57-7.59c1.714,4.407,5.142,8.08,11.263,8.57,7.59.735,16.16-5.387,20.078-12.242C91.576,85.2,107,87.646,116.306,79.321c4.407,10.528,19.588,11.018,26.933,1.469,1.714,11.018,14.936,15.181,24.974,9.549.49,4.9,2.693,9.3,8.325,11.753a23.141,23.141,0,0,0,17.629,0,13.013,13.013,0,0,0,3.918,12c4.9,4.652,11.018,4.652,16.4,2.448-.979,6.366-.49,12.487,3.183,18.364,2.938,4.9,7.835,6.366,12.732,6.366-3.183,4.162-4.407,9.3-2.448,14.446,2.2,5.876,6.856,8.08,12.242,8.325-2.938,4.407-4.9,9.549-4.407,14.691,0,.979.49,1.959.49,2.693a19.322,19.322,0,0,0-7.345,2.938,5.169,5.169,0,0,0-3.918-1.469c-35.013,5.387-52.4-26.688-81.045-36.482a129.648,129.648,0,0,0-61.212-5.142C46.524,147.389.737,164.284,0,207.377c-.49,24.73,37.951,22.281,52.642,19.833,24.73-4.162,47.745-15.181,72.965-16.4,28.158-1.469,54.846,12.242,83,14.446-.245.245-.49.49-.735.49a10.364,10.364,0,0,0-4.162,9.3,18.512,18.512,0,0,0-16.16,4.652,4.936,4.936,0,0,0-1.714,2.2c-3.428-3.428-8.57-5.142-14.2-1.959-6.611,3.428-9.3,9.3-9.3,15.67-4.162-2.2-8.57-2.448-13.711,0-2.938,1.469-4.652,4.162-5.876,7.1-3.673-3.673-8.815-5.876-14.2-4.9a13.794,13.794,0,0,0-10.284,8.57,14.306,14.306,0,0,0-12.977-3.183,13.372,13.372,0,0,0-8.815,6.366c-1.714-4.407-4.9-7.59-11.018-6.856-6.856.979-11.018,6.121-13.222,12C67.826,266.875,60.725,261,50.441,262.957c-12.242,2.449-15.181,15.915-4.9,23.016a2.38,2.38,0,0,0,2.2.245c50.194,28.4,123.159,47.011,173.108,11.263,0,23.75,1.469,47.011,17.384,66.109,2.693,3.428,7.345.979,8.57-2.448,4.9-12,20.078-59.008,34.768-28.158,3.673,7.835,8.57,18.119,18.119,20.812,15.915,4.407,21.791-26.444,24.974-41.624.245-.245.49-.49.49-.735C362.867,230.882,357.726,108.213,292.841,42.839ZM49.462,277.648c-.735-.49-1.714,0-2.448.49-1.224-4.407-.245-8.08,6.611-8.325,8.08-.245,12.732,6.366,15.181,13.467A80.608,80.608,0,0,1,49.462,277.648ZM74.681,78.1c-9.3,3.673-11.508-6.121-10.039-13.222,7.345.245,14.691.49,22.526,1.224C83.251,70.507,80.8,75.649,74.681,78.1Zm40.4-8.815C110.674,82.5,91.821,82.5,94.514,66.589c6.856.49,13.956,1.469,21.057,2.448C115.081,69.038,115.081,69.038,115.081,69.283Zm14.691,12c-7.345,1.959-8.815-5.876-8.325-11.263v-.49c6.366.979,12.242,2.2,18.608,3.428C137.362,76.873,134.914,80.056,129.772,81.28Zm18.608-6.366a187.561,187.561,0,0,1,20.078,5.632C160.623,89.85,147.646,87.646,148.381,74.914Zm36.482,21.791c-9.059.49-11.753-6.611-8.815-13.711a178.685,178.685,0,0,1,20.812,9.3C193.188,94.747,189.515,96.706,184.863,96.706Zm18.608,12.732c-6.121-2.938-2.938-9.3-.245-13.222,4.652,2.938,9.3,6.121,13.467,9.3C213.02,109.193,208.858,111.886,203.471,109.438Zm18.608,19.588c-2.693-4.9-1.959-12.977.979-18.119A108.086,108.086,0,0,1,238.974,130c-.245,0-.49,0-.49.245C232.363,133.678,226.242,136.371,222.08,129.026Zm12.732,23.75c-3.673-5.387,3.183-11.018,6.856-13.711.979-.49,1.224-1.714.979-2.938a83.559,83.559,0,0,1,7.1,17.384c-.245,0-.49,0-.49.245C244.606,156.2,238.485,158.162,234.812,152.776Zm17.139,9.549c.49,3.428,1.224,7.1,1.469,10.773.245,2.448.245,5.387.245,7.835-5.387.245-12,.979-10.284-6.611C244.606,169.425,248.279,165.263,251.951,162.325Zm-19.1,28.4c4.9-4.407,12.977-1.714,17.874.979a1.561,1.561,0,0,0,1.469,0,69.3,69.3,0,0,1-6.366,16.16,3.275,3.275,0,0,0-1.714-1.959C238.974,203.7,225.753,197.583,232.853,190.727Zm-5.632,27.913c1.224-6.121,8.815-6.366,13.467-4.9H242.4a68.5,68.5,0,0,1-9.059,11.753C229.67,224.271,226.487,223.047,227.222,218.64Zm-2.448,11.753,2.2,1.469a144.454,144.454,0,0,1-11.263,9.549c-3.428-2.693-7.1-7.1-2.448-10.528C216.938,228.189,221.1,228.924,224.773,230.393ZM67.091,186.075c-2.448,1.469-4.407-2.2-2.448-3.918,47.99-36.727,96.47,5.632,146.419,14.691,3.428.49,2.693,6.611-.979,6.366C158.664,200.031,119,152.041,67.091,186.075Zm126.342,59.5c4.407-4.9,11.263-2.693,15.915.735a134.572,134.572,0,0,1-13.956,8.815C192.453,252.429,189.76,249.491,193.433,245.573Zm-21.057,1.469c4.407-4.407,8.325-2.938,11.508.49a15.23,15.23,0,0,0,3.673,11.508c-5.142,2.448-10.284,5.142-15.67,7.345C167.968,260.264,166.989,252.674,172.376,247.042Zm-21.547,15.915c5.387-6.121,11.753,1.714,14.446,6.366-4.9,1.959-10.039,3.673-15.181,5.387C149.115,270.548,147.4,266.63,150.829,262.957Zm-20.078.979c4.407-.49,8.325,2.448,11.263,5.632a15.94,15.94,0,0,0,1.959,6.856c-6.856,1.959-13.712,3.428-20.567,4.9a26.88,26.88,0,0,0-.49-6.366C122.916,269.568,124.875,264.426,130.752,263.937Zm-24.73,6.611c6.366-2.448,9.3,1.714,10.284,6.856a29.631,29.631,0,0,0,.245,4.652v.49a121.292,121.292,0,0,1-13.222,1.469C101.37,278.873,99.166,273.486,106.022,270.548Zm-22.036-1.714c9.059-5.387,10.528,10.284,10.528,15.181a.855.855,0,0,0,.245.49,146.582,146.582,0,0,1-18.119-.49C76.64,278.138,78.6,272.017,83.986,268.834Zm234.809,31.585a3.8,3.8,0,0,0-2.448,3.183c-2.693,8.325-4.9,17.139-7.345,25.464-5.387,20.078-25.219-16.895-27.423-20.077-4.162-6.366-11.018-3.918-16.4-2.2-11.263,3.673-16.4,16.16-20.077,26.2-4.652,12.242-1.224,32.81-10.773,1.469-4.407-14.446-3.183-32.32-3.183-47.5,0-4.407-5.387-6.366-8.57-3.428-39.176,35.748-93.532,25.954-141.032,9.3,27.913,2.2,60.233-8.57,83.248-16.16a180.088,180.088,0,0,0,30.851-13.222,3.638,3.638,0,0,0,3.183-1.469,158.669,158.669,0,0,0,37.707-27.913,4.167,4.167,0,0,0,1.714-.245c2.449-.49,2.693-2.448,2.2-4.162A111.258,111.258,0,0,0,261.5,193.91c15.181-44.562-23.016-87.656-57.294-109.2-43.828-27.178-100.877-31.1-150.826-31.1-7.1,0-7.1,11.018,0,11.018H57.3c-1.469,5.387-4.652,8.815-8.815,12.242a10.724,10.724,0,0,1-4.162-9.794.24.24,0,0,1,.245-.245,16.533,16.533,0,0,0,.49-3.428,46.386,46.386,0,0,1,2.2-5.142c.49-.49.245-1.224,0-1.714,16.4-37.462,95.98-46.766,126.1-47.011C226,9.05,277.66,32.555,306.8,76.628,350.135,142.492,337.893,228.924,318.795,300.419Z" transform="translate(0.002 -0.006)"/>
        <path id="Path_1146" data-name="Path 1146" class="cls-2" d="M132.2,46.458a3.38,3.38,0,0,0-.979-.735,7.1,7.1,0,0,0-7.835-1.469c-4.9,2.2-5.387,7.59-4.9,12.242s2.693,9.549,8.08,9.794c6.121.245,9.549-5.876,9.549-11.263C136.118,51.844,134.648,48.172,132.2,46.458Z" transform="translate(171.416 63.218)"/>
      </g>
    </g>
    <path id="Path_1147" data-name="Path 1147" class="cls-3" d="M106.583,200.636s27.178,37.707,55.825,34.279c0,0-25.709-32.075-15.425-54.356,0,0,75.658-11.018,80.31-62.191C231.945,66.949,151.39-37.6,93.361,14.062S-17.555,89.475,5.46,148.728,106.583,200.636,106.583,200.636Z" transform="translate(553.051 764.904)"/>
  </g>
</svg>
